<svg width="10" height="8" viewBox="0 0 10 8" fill="none" xmlns="http://www.w3.org/2000/svg">
<path d="M4.225 5.75C4.425 5.95 4.68333 6.04792 5 6.04375C5.31667 6.03958 5.55 5.925 5.7 5.7L7.8125 2.5375C7.8875 2.42083 7.87708 2.31458 7.78125 2.21875C7.68542 2.12292 7.57917 2.1125 7.4625 2.1875L4.3 4.3C4.075 4.45 3.95625 4.67917 3.94375 4.9875C3.93125 5.29583 4.025 5.55 4.225 5.75ZM5 0C5.3 0 5.59583 0.025 5.8875 0.075C6.17917 0.125 6.4625 0.204167 6.7375 0.3125C6.87083 0.3625 7.0125 0.45625 7.1625 0.59375C7.3125 0.73125 7.35417 0.8625 7.2875 0.9875C7.22083 1.1125 7.07083 1.19583 6.8375 1.2375C6.60417 1.27917 6.41667 1.275 6.275 1.225C6.06667 1.15 5.85625 1.09375 5.64375 1.05625C5.43125 1.01875 5.21667 1 5 1C3.89167 1 2.94792 1.38958 2.16875 2.16875C1.38958 2.94792 1 3.89167 1 5C1 5.35 1.04792 5.69583 1.14375 6.0375C1.23958 6.37917 1.375 6.7 1.55 7H8.45C8.64167 6.68333 8.78125 6.35417 8.86875 6.0125C8.95625 5.67083 9 5.31667 9 4.95C9 4.73333 8.98125 4.52083 8.94375 4.3125C8.90625 4.10417 8.85 3.9 8.775 3.7C8.725 3.55833 8.71667 3.42083 8.75 3.2875C8.78333 3.15417 8.85833 3.04167 8.975 2.95C9.08333 2.86667 9.20208 2.84167 9.33125 2.875C9.46042 2.90833 9.55 2.98333 9.6 3.1C9.725 3.39167 9.82083 3.68958 9.8875 3.99375C9.95417 4.29792 9.99167 4.60833 10 4.925C10.0083 5.4 9.95417 5.85417 9.8375 6.2875C9.72083 6.72083 9.55 7.13333 9.325 7.525C9.23333 7.675 9.10833 7.79167 8.95 7.875C8.79167 7.95833 8.625 8 8.45 8H1.55C1.375 8 1.20833 7.95833 1.05 7.875C0.891667 7.79167 0.766667 7.675 0.675 7.525C0.458333 7.15 0.291667 6.75208 0.175 6.33125C0.0583333 5.91042 0 5.46667 0 5C0 4.30833 0.13125 3.66042 0.39375 3.05625C0.65625 2.45208 1.01458 1.92292 1.46875 1.46875C1.92292 1.01458 2.45417 0.65625 3.0625 0.39375C3.67083 0.13125 4.31667 0 5 0Z" fill="#F8FAFC" fill-opacity="0.8"/>
</svg>
